<?xml version="1.0" standalone="no"?>
<!DOCTYPE svg PUBLIC "-//W3C//DTD SVG 20010904//EN"
 "http://www.w3.org/TR/2001/REC-SVG-20010904/DTD/svg10.dtd">
<svg version="1.0" xmlns="http://www.w3.org/2000/svg"
 width="500.000000pt" height="500.000000pt" viewBox="0 0 500.000000 500.000000"
 preserveAspectRatio="xMidYMid meet">
<metadata>
Created by potrace 1.14, written by Peter Selinger 2001-2017
</metadata>
<g transform="translate(0.000000,500.000000) scale(0.100000,-0.100000)"
fill="#000000" stroke="none">
<path d="M2453 3865 l-744 -744 706 -705 706 -706 744 745 c410 409 745 748
745 752 0 11 -1393 1403 -1404 1403 -5 0 -344 -335 -753 -745z m1304 -144
l514 -515 -575 -575 -576 -576 -532 533 -533 532 575 575 c554 554 575 574
593 557 11 -9 251 -248 534 -531z"/>
<path d="M960 2372 c-313 -313 -570 -572 -570 -576 0 -9 158 -166 167 -166 5
0 264 256 577 569 l569 569 -86 87 -87 87 -570 -570z"/>
<path d="M1566 1748 l-569 -570 87 -87 86 -86 575 575 574 574 -85 83 c-47 46
-88 83 -92 82 -4 0 -263 -257 -576 -571z"/>
<path d="M2200 1135 c-311 -310 -566 -569 -568 -574 -3 -9 151 -171 163 -171
3 0 262 257 575 570 l570 570 -84 85 c-46 47 -85 85 -87 85 -2 0 -258 -254
-569 -565z"/>
</g>
</svg>
